<?xml version="1.0" encoding="UTF-8" standalone="no"?>
<!-- Created with Inkscape (http://www.inkscape.org/) -->

<svg
   width="188.01559mm"
   height="57.383137mm"
   viewBox="0 0 188.01559 57.383137"
   version="1.1"
   id="svg1"
   xml:space="preserve"
   xmlns:inkscape="http://www.inkscape.org/namespaces/inkscape"
   xmlns:sodipodi="http://sodipodi.sourceforge.net/DTD/sodipodi-0.dtd"
   xmlns="http://www.w3.org/2000/svg"
   xmlns:svg="http://www.w3.org/2000/svg"><sodipodi:namedview
     id="namedview1"
     pagecolor="#505050"
     bordercolor="#eeeeee"
     borderopacity="1"
     inkscape:showpageshadow="0"
     inkscape:pageopacity="0"
     inkscape:pagecheckerboard="0"
     inkscape:deskcolor="#505050"
     inkscape:document-units="mm"><inkscape:page
       x="0"
       y="0"
       width="188.01559"
       height="57.383137"
       id="page2"
       margin="0"
       bleed="0" /></sodipodi:namedview><defs
     id="defs1"><linearGradient
       id="swatch38"
       inkscape:swatch="solid"><stop
         style="stop-color:#ffffff;stop-opacity:1;"
         offset="0"
         id="stop38" /></linearGradient><linearGradient
       id="linearGradient15717"
       inkscape:swatch="solid"><stop
         style="stop-color:#000000;stop-opacity:1;"
         offset="0"
         id="stop15715" /></linearGradient><style
       id="style5"><![CDATA[
      .name { font-family: "Inter", "Montserrat", Arial, sans-serif; font-weight: 800; font-size: 56px; fill: #f2f2f2; letter-spacing: 1px; }
      .title { font-family: "Inter", "Montserrat", Arial, sans-serif; font-weight: 700; font-size: 28px; fill: #f0b400; letter-spacing: 2px; }
      .item { font-family: "Inter", Arial, sans-serif; font-weight: 500; font-size: 28px; fill: #e9e9e9; }
      .muted { font-family: "Inter", Arial, sans-serif; font-weight: 600; font-size: 26px; fill: #e9e9e9; }
      .bullet { font-size: 30px; fill: #e9e9e9; }
    ]]></style><style
       id="style1-3">.cls-1{fill:#190933;}</style><clipPath
       clipPathUnits="userSpaceOnUse"
       id="clipPath15-7-0"><rect
         style="fill:#e2aa0e;fill-opacity:1;stroke:#000000;stroke-width:0;stroke-dasharray:none;paint-order:fill markers stroke"
         id="rect16-1-8"
         width="19.810677"
         height="9.558073"
         x="85.047005"
         y="216.99141" /></clipPath><clipPath
       clipPathUnits="userSpaceOnUse"
       id="clipPath15-5-1-8"><rect
         style="fill:#e2aa0e;fill-opacity:1;stroke:#000000;stroke-width:0;stroke-dasharray:none;paint-order:fill markers stroke"
         id="rect16-7-5-0"
         width="19.810677"
         height="9.558073"
         x="85.047005"
         y="216.99141" /></clipPath></defs><g
     inkscape:label="Livello 1"
     inkscape:groupmode="layer"
     id="layer1"
     transform="translate(-10.815704,-85.917023)"><g
       id="g10"
       transform="matrix(1.0499703,0,0,1.0500073,-8.9319515,-42.391615)"><g
         id="layer9"
         inkscape:label="Livello 9 (T)"><text
           xml:space="preserve"
           style="font-style:normal;font-variant:normal;font-weight:normal;font-stretch:normal;font-size:26.2839px;font-family:'Times New Roman';-inkscape-font-specification:'Times New Roman, Normal';font-variant-ligatures:normal;font-variant-caps:normal;font-variant-numeric:normal;font-variant-east-asian:normal;text-align:start;writing-mode:lr-tb;direction:ltr;text-anchor:start;fill:#ffffff;fill-opacity:1;stroke:#ffffff;stroke-width:0.480357;stroke-opacity:1;paint-order:fill markers stroke"
           x="169.93062"
           y="148.11903"
           id="text19-2"><tspan
             sodipodi:role="line"
             id="tspan19-6"
             style="fill:#ffffff;fill-opacity:1;stroke:#ffffff;stroke-width:0.480358;stroke-opacity:1"
             x="169.93062"
             y="148.11903">T</tspan></text></g><g
         id="layer8"
         inkscape:label="Livello 8 (L)"><text
           xml:space="preserve"
           style="font-style:normal;font-variant:normal;font-weight:normal;font-stretch:normal;font-size:26.2839px;font-family:'Times New Roman';-inkscape-font-specification:'Times New Roman, Normal';font-variant-ligatures:normal;font-variant-caps:normal;font-variant-numeric:normal;font-variant-east-asian:normal;text-align:start;writing-mode:lr-tb;direction:ltr;text-anchor:start;fill:#ffffff;fill-opacity:1;stroke:#ffffff;stroke-width:0.480357;stroke-opacity:1;paint-order:fill markers stroke"
           x="155.36769"
           y="148.22247"
           id="text18-0"><tspan
             sodipodi:role="line"
             id="tspan18-1"
             style="fill:#ffffff;fill-opacity:1;stroke:#ffffff;stroke-width:0.480358;stroke-opacity:1"
             x="155.36769"
             y="148.22247">L</tspan></text></g><g
         id="layer12"
         inkscape:label="Livello 7 (O) tagliata "
         transform="matrix(0.99991514,0,0,1,0.01166672,-0.10364711)"><text
           xml:space="preserve"
           style="font-style:normal;font-variant:normal;font-weight:bold;font-stretch:normal;font-size:26.4166px;font-family:'Times New Roman';-inkscape-font-specification:'Times New Roman, Bold';font-variant-ligatures:normal;font-variant-caps:normal;font-variant-numeric:normal;font-variant-east-asian:normal;text-align:start;writing-mode:lr-tb;direction:ltr;text-anchor:start;display:inline;fill:#ffffff;fill-opacity:1;stroke:#ffffff;stroke-width:0.480357;stroke-dasharray:none;stroke-opacity:1;paint-order:fill markers stroke"
           x="84.668701"
           y="235.20757"
           id="text171-6-2-1"
           clip-path="url(#clipPath15-5-1-8)"
           transform="matrix(1,0,0,-1,51.640579,365.93848)"><tspan
             sodipodi:role="line"
             id="tspan171-5-1-8"
             style="fill:#ffffff;fill-opacity:1;stroke-width:0.480358"
             x="84.668701"
             y="235.20757">O</tspan></text></g><g
         id="layer10"
         inkscape:label="Livello 10 (sinusoide)  1"><path
           id="path2"
           style="display:inline;fill:#e2aa0e;fill-opacity:1;stroke-width:0.494666"
           d="m 134.85986,122.21651 c -2.66734,0.085 -4.27462,1.72385 -5.53249,3.03202 -3.09081,3.79832 -4.32074,8.06329 -5.71838,12.21103 -1.08344,3.11482 -1.64872,6.31012 -3.09716,9.36782 -0.75721,1.2614 -2.64117,2.30547 -4.85107,2.23162 -4.77986,0.18113 -9.56854,0.27704 -14.35131,0.43574 5.35118,0.11343 10.70154,0.4097 16.05444,0.39017 3.71532,-0.36281 6.05478,-2.70128 6.91076,-4.86661 1.46782,-5.50868 2.97431,-11.05099 5.76831,-16.36104 1.03485,-1.62458 2.02161,-3.46027 4.31915,-4.53647 1.66364,-0.71122 3.32328,0.458 4.13084,1.30503 2.93294,3.0277 4.02838,6.59105 5.29865,10.0098 3.59064,10.4749 5.37876,21.18443 9.35885,31.5716 1.30686,2.92517 2.5582,6.01659 5.63031,8.41839 1.25908,1.00498 3.23422,1.59277 5.25862,1.37861 3.35305,-0.51976 5.04573,-2.71212 6.32409,-4.56072 3.03422,-4.77383 4.26271,-9.81421 5.86938,-14.89711 0.75231,-1.96668 0.87187,-4.10487 2.487,-5.88863 0.93589,-1.02022 2.72943,-1.5816 4.56466,-1.51769 4.86138,-0.17739 9.72748,-0.2952 14.59085,-0.44761 -5.5774,-0.12537 -11.15263,-0.41514 -16.73402,-0.39703 -3.4022,0.24368 -5.55288,2.33655 -6.57891,4.24156 -0.97254,2.60312 -1.4446,5.2775 -2.34609,7.89371 -1.34679,3.93573 -2.51678,7.98496 -5.43003,11.59803 -0.88399,0.9433 -2.01082,2.37733 -4.06384,2.20097 -2.27024,-0.47339 -3.24784,-2.07535 -4.20855,-3.33851 -3.83346,-6.16972 -5.1407,-12.8076 -7.04524,-19.29179 -2.00756,-7.18398 -3.50723,-14.44934 -6.55533,-21.49536 -1.39369,-2.88852 -2.66846,-6.24031 -6.6516,-8.21749 -0.98515,-0.52071 -2.19189,-0.51449 -3.40189,-0.47004 z" /></g><g
         id="layer2"
         inkscape:label="Livello 7 (O)"><text
           xml:space="preserve"
           style="font-style:normal;font-variant:normal;font-weight:bold;font-stretch:normal;font-size:26.4166px;font-family:'Times New Roman';-inkscape-font-specification:'Times New Roman, Bold';font-variant-ligatures:normal;font-variant-caps:normal;font-variant-numeric:normal;font-variant-east-asian:normal;text-align:start;writing-mode:lr-tb;direction:ltr;text-anchor:start;display:inline;fill:#ffffff;fill-opacity:1;stroke:#ffffff;stroke-width:0.480357;stroke-dasharray:none;stroke-opacity:1;paint-order:fill markers stroke"
           x="84.668701"
           y="235.20757"
           id="text171-6-2"
           clip-path="url(#clipPath15-7-0)"
           transform="translate(51.640531,-87.057313)"><tspan
             sodipodi:role="line"
             id="tspan171-5-1"
             style="fill:#ffffff;fill-opacity:1;stroke-width:0.480358"
             x="84.668701"
             y="235.20757">O</tspan></text></g><g
         id="layer6"
         inkscape:label="Livello 6 (V)"><path
           style="font-size:26.9036px;font-family:'Times New Roman';-inkscape-font-specification:'Times New Roman, Normal';fill:#ffffff;fill-opacity:1;stroke:#ffffff;stroke-width:0.472368;paint-order:fill markers stroke"
           d="m 139.29638,130.44708 v 0.46696 q -0.90867,0.16406 -1.37563,0.58054 -0.66888,0.6184 -1.18632,1.89307 l -5.96949,14.56402 h -0.46695 l -6.4112,-14.75333 q -0.4922,-1.13584 -0.69412,-1.38825 -0.31551,-0.39124 -0.78247,-0.60578 -0.45434,-0.22717 -1.2368,-0.29027 v -0.46696 h 6.99173 v 0.46696 q -1.18632,0.11358 -1.5397,0.40385 -0.35337,0.29027 -0.35337,0.74461 0,0.63102 0.58054,1.96879 l 4.35406,10.03327 4.03855,-9.90707 q 0.59317,-1.46397 0.59317,-2.03189 0,-0.36599 -0.366,-0.69413 -0.36599,-0.34075 -1.2368,-0.47957 -0.0631,-0.0126 -0.21455,-0.0379 v -0.46696 z"
           id="text16-75"
           inkscape:label="V"
           aria-label="V" /></g><g
         id="layer5"
         inkscape:label="Livello 5 (R)"><text
           xml:space="preserve"
           style="font-style:normal;font-variant:normal;font-weight:bold;font-stretch:normal;font-size:26.4167px;font-family:'Times New Roman';-inkscape-font-specification:'Times New Roman, Bold';font-variant-ligatures:normal;font-variant-caps:normal;font-variant-numeric:normal;font-variant-east-asian:normal;text-align:start;writing-mode:lr-tb;direction:ltr;text-anchor:start;fill:#ffffff;fill-opacity:1;stroke:#ffffff;stroke-width:0.482783;stroke-opacity:1;paint-order:fill markers stroke"
           x="97.543663"
           y="147.98662"
           id="text15"><tspan
             sodipodi:role="line"
             id="tspan15"
             style="font-style:normal;font-variant:normal;font-weight:bold;font-stretch:normal;font-size:26.4167px;font-family:'Times New Roman';-inkscape-font-specification:'Times New Roman, Bold';font-variant-ligatures:normal;font-variant-caps:normal;font-variant-numeric:normal;font-variant-east-asian:normal;fill:#ffffff;fill-opacity:1;stroke:#ffffff;stroke-width:0.482784;stroke-opacity:1"
             x="97.543663"
             y="147.98662">R</tspan></text></g><g
         id="layer4"
         inkscape:label="Livello 4 (E)"><text
           xml:space="preserve"
           style="font-style:normal;font-variant:normal;font-weight:normal;font-stretch:normal;font-size:26.383px;font-family:'Times New Roman';-inkscape-font-specification:'Times New Roman, Normal';font-variant-ligatures:normal;font-variant-caps:normal;font-variant-numeric:normal;font-variant-east-asian:normal;text-align:start;writing-mode:lr-tb;direction:ltr;text-anchor:start;fill:#ffffff;stroke:#ffffff;stroke-width:0.482168;paint-order:fill markers stroke"
           x="81.18882"
           y="147.97536"
           id="text14"><tspan
             sodipodi:role="line"
             id="tspan14"
             style="stroke-width:0.482169"
             x="81.18882"
             y="147.97536">E</tspan></text></g><g
         id="layer3-2"
         inkscape:label="Livello 3 (W)"><text
           xml:space="preserve"
           style="font-style:normal;font-variant:normal;font-weight:normal;font-stretch:normal;font-size:25.7892px;font-family:'Times New Roman';-inkscape-font-specification:'Times New Roman, Normal';font-variant-ligatures:normal;font-variant-caps:normal;font-variant-numeric:normal;font-variant-east-asian:normal;text-align:start;writing-mode:lr-tb;direction:ltr;text-anchor:start;fill:#ffffff;stroke:#ffffff;stroke-width:0.471315;paint-order:fill markers stroke"
           x="55.945663"
           y="147.6064"
           id="text13"><tspan
             sodipodi:role="line"
             id="tspan13"
             style="stroke-width:0.471316"
             x="55.945663"
             y="147.6064">W</tspan></text></g><g
         id="layer7"
         inkscape:label="Livello 2 (O)"
         style="display:inline"><path
           id="path1"
           style="display:inline;fill:#ffffff;fill-opacity:1;stroke-width:0.960716"
           d="m 53.852036,155.73758 -1.652231,0.26263 -1.652231,0.26213 -8.200091,-0.1405 -8.200589,-0.14099 -0.378305,0.31426 -0.378802,0.31426 v 0.44582 0.44632 l 0.372845,0.3098 0.372844,0.30929 1.21584,0.33412 1.21584,0.33412 0.381284,-0.13603 0.381284,-0.13603 1.016757,-0.211 1.016758,-0.21149 8.909041,-0.0109 8.909539,-0.0114 0.305325,-0.30483 0.304828,-0.30483 v -0.47064 -0.47065 l -0.913989,-0.38178 -0.913494,-0.38178 -1.056474,-0.01 z m 0.871294,5.3484 -1.197967,0.0204 -1.198464,0.0208 -8.488039,0.18816 -8.488041,0.18816 -0.280005,0.44483 -0.280503,0.44483 0.280006,0.44434 0.280005,0.44384 1.371233,0.43043 1.370737,0.43044 0.381284,-0.14696 0.381284,-0.14645 1.398042,-0.24476 1.398041,-0.24476 7.040849,-0.0382 7.041345,-0.0382 0.290431,-0.29043 0.290928,-0.29093 -0.09036,-0.46965 -0.09085,-0.47015 -0.704978,-0.3381 z m -5.579756,4.86584 0.141989,0.95321 0.141492,0.95321 -0.517811,0.8286 -0.517813,0.8286 -0.8281,0.5049 -0.828599,0.5054 -1.169668,5e-4 -1.170165,9.6e-4 -0.863351,-0.58136 -0.863846,-0.58185 -0.598736,-1.08478 -0.598735,-1.08477 -0.519301,0.0779 -0.519301,0.0774 -0.259651,0.41504 -0.25965,0.41455 0.348517,0.8425 0.349014,0.8425 0.772498,0.87973 0.772497,0.87973 1.01924,0.4632 1.018744,0.46221 1.471518,0.006 1.472015,0.005 0.942785,-0.48504 0.943281,-0.48505 0.685616,-0.72235 0.685617,-0.72236 0.394689,-0.94477 0.394688,-0.94526 v -0.78348 -0.78392 l -0.881719,-0.36838 -0.881224,-0.36837 h -0.138513 z" /><path
           id="path1-3"
           style="display:inline;fill:#e1ac0e;fill-opacity:1;stroke-width:0.589126"
           inkscape:label="ampolla lampadina"
           d="m 43.072319,129.97508 -1.371233,0.41803 -1.371233,0.41851 -0.966614,0.48455 -0.967112,0.48455 -0.935337,0.66923 -0.935338,0.66973 -0.880727,0.91002 -0.880726,0.90952 -0.716397,1.08081 -0.716894,1.0808 -0.451782,1.1791 -0.451285,1.1796 -0.197593,0.93533 -0.198089,0.93534 0.0134,1.79223 0.0134,1.79274 0.322701,1.22825 0.322701,1.22775 0.54611,1.13541 0.546111,1.13542 0.853421,1.0659 0.853421,1.06541 0.901081,0.71938 0.900585,0.71888 0.851436,0.48207 0.850938,0.48206 0.04965,-0.0491 0.04965,-0.0497 -0.387242,-0.77001 -0.386745,-0.77051 -0.93633,-0.72732 -0.936331,-0.72683 -0.715404,-0.90108 -0.715901,-0.90108 -0.60221,-1.24712 -0.602707,-1.24711 -0.267098,-1.22974 -0.267594,-1.23024 0.08291,-1.80961 0.08241,-1.80961 0.343057,-1.09073 0.343057,-1.09123 0.538663,-1.03165 0.538166,-1.03116 0.73576,-0.91299 0.736256,-0.91399 0.930869,-0.75314 0.931862,-0.75363 1.247117,-0.61512 1.246621,-0.61462 1.247116,-0.32965 1.247117,-0.33015 2.259903,-0.0104 2.2604,-0.0109 1.421375,0.26461 1.421376,0.26462 0.912997,0.30135 0.912996,0.30086 0.08142,-0.0814 0.08142,-0.0809 -0.311779,-0.2388 -0.311282,-0.2388 -1.091228,-0.52526 -1.091227,-0.52575 -1.24662,-0.33611 -1.247117,-0.33561 -2.260399,-0.005 z m 10.176017,2.67892 -0.384263,0.0963 -0.384262,0.0963 0.877251,0.94725 0.876755,0.94726 0.779448,1.02966 0.779945,1.03017 0.456249,0.95718 0.457244,0.95718 0.275041,0.99591 0.27504,0.99541 -0.02036,2.2599 -0.02036,2.2604 -0.329651,1.23123 -0.330149,1.23123 -0.563486,1.00732 -0.563487,1.00733 0.253694,-0.14149 0.254189,-0.14249 0.643914,-0.84945 0.643913,-0.84995 0.42398,-0.93533 0.423484,-0.93484 0.215961,-0.8574 0.215466,-0.85739 -0.01539,-1.79273 -0.01539,-1.79223 -0.26263,-1.09123 -0.263125,-1.09123 -0.717887,-1.48045 -0.718383,-1.48095 -1.10761,-1.10712 -1.108107,-1.10662 -0.52377,-0.26958 z m 0.471641,17.48247 -1.582727,0.53817 -1.583222,0.53817 -1.012786,0.16234 -1.013282,0.16185 -0.857393,0.002 -0.857393,0.001 -1.332509,-0.24426 -1.333005,-0.24476 -0.225891,-0.14099 -0.221423,-0.13852 c -0.03028,-0.003 -0.06043,-0.005 -0.09086,-0.006 -0.03517,-0.002 -0.07052,-0.002 -0.105746,-0.002 -0.04648,-5.9e-4 -0.09302,-0.003 -0.139507,-0.004 -0.05255,-5.9e-4 -0.105381,-0.004 -0.157875,-0.005 -0.05367,-0.001 -0.107185,-0.004 -0.160855,-0.006 -0.06292,-0.002 -0.125784,-0.006 -0.188656,-0.009 -0.06613,-0.005 -0.132338,-0.008 -0.198585,-0.01 -0.06765,-0.001 -0.134979,-0.004 -0.202558,-0.007 -0.07565,-0.005 -0.151595,-0.009 -0.22738,-0.0114 -0.08868,-0.002 -0.177394,-0.004 -0.266105,-0.003 -0.0188,4.3e-4 -0.0373,0.001 -0.0561,0.002 l -0.003,0.003 v 0.31873 0.31923 l 0.692566,0.32518 0.692567,0.32568 1.216832,0.30682 1.216833,0.30731 0.389725,0.0645 0.389724,0.064 1.342437,0.0214 1.342438,0.0213 0.840016,-0.15837 0.839521,-0.15788 1.169172,-0.55356 1.168675,-0.55355 0.351,-0.32866 0.350504,-0.32866 v -0.28447 -0.28448 h -0.09234 z" /><path
           id="path1-7"
           style="display:inline;fill:#e1ac0e;fill-opacity:1;stroke-width:0.586488"
           d="m 47.568739,133.14651 -3.764811,3.53023 -3.765115,3.53023 -1.287162,1.27353 -1.287164,1.27352 v 0.22852 0.22822 l 0.243673,0.24397 0.243973,0.24368 h 1.152601 1.152901 l -0.0047,0.19396 -0.0053,0.19397 -0.227611,0.30126 -0.227913,0.30126 v 0.19215 0.19184 l 0.243673,0.24398 0.243978,0.24367 h 2.074554 2.074556 l 0.09032,0.14639 0.09032,0.14608 -1.24473,1.73905 -1.245036,1.73906 v 0.14244 0.14245 l -0.387938,0.50856 -0.387937,0.50856 v 0.31732 0.31762 l 0.556448,0.26156 c 0.02089,-0.0158 0.0418,-0.0314 0.06425,-0.0449 0.04874,-0.032 0.09512,-0.0672 0.144567,-0.0982 0.0485,-0.0333 0.09813,-0.0647 0.146082,-0.0988 0.03726,-0.0273 0.07443,-0.0547 0.111235,-0.0824 0.03882,-0.0292 0.07698,-0.0593 0.115172,-0.0894 0.03702,-0.0297 0.07486,-0.0585 0.110932,-0.0894 0.03384,-0.028 0.06747,-0.056 0.101827,-0.0833 0.03389,-0.0285 0.06934,-0.0557 0.10637,-0.08 0.03079,-0.0203 0.06271,-0.0384 0.09698,-0.0521 0.04102,-0.0207 0.08181,-0.0422 0.124267,-0.06 0.03001,-0.0127 0.05996,-0.0263 0.08789,-0.043 0.0073,-0.005 0.0147,-0.0101 0.02184,-0.0155 l -0.0033,-0.002 0.04759,-0.0333 0.288225,-0.20336 0.335808,-0.2364 2.079104,-1.74633 2.078795,-1.74632 1.966663,-1.6157 1.96636,-1.6157 0.09395,-0.29611 0.09396,-0.2964 -0.27944,-0.30884 -0.279736,-0.30914 -0.626458,0.0242 -0.626761,0.0239 -3.452644,-0.0143 -3.452642,-0.0145 v -0.20548 -0.20579 l 2.560389,-3.90544 2.560383,-3.90574 v -0.1824 -0.18275 l -0.256704,-0.28368 -0.257011,-0.28399 h -0.199723 z m -4.665857,6.31792 0.0982,0.0982 0.09819,0.0982 -0.878617,1.3205 -0.878921,1.32051 h -0.5419 -0.542203 v -0.1276 -0.12759 l 1.322624,-1.29111 z m -0.783149,4.23398 h 3.491437 3.491433 v 0.13456 0.13426 l -1.202604,0.97985 -1.201697,0.97984 -0.193968,0.14639 -0.193971,0.14608 0.0054,-0.13547 0.0054,-0.13548 0.221551,-0.38794 0.221849,-0.38793 0.0054,-0.34369 0.0054,-0.34369 -0.300043,-0.16063 -0.30035,-0.16063 h -2.027503 -2.027578 v -0.23276 z m 0.571603,8.19851 c -0.0014,5.9e-4 -0.0028,0.001 -0.0042,0.002 l 0.0033,0.002 c 1.37e-4,-2.2e-4 5.85e-4,-5.3e-4 5.85e-4,-5.9e-4 7.4e-5,-0.002 2.3e-4,-0.002 3.05e-4,-0.004 z"
           inkscape:label="saetta lampadina" /></g><g
         inkscape:label="Livello 1 (P)"
         id="layer1-7"><text
           xml:space="preserve"
           style="font-style:normal;font-variant:normal;font-weight:normal;font-stretch:normal;font-size:26.2839px;font-family:'Times New Roman';-inkscape-font-specification:'Times New Roman, Normal';font-variant-ligatures:normal;font-variant-caps:normal;font-variant-numeric:normal;font-variant-east-asian:normal;text-align:start;writing-mode:lr-tb;direction:ltr;text-anchor:start;fill:#ffffff;stroke:#ffffff;stroke-width:0.480357;paint-order:fill markers stroke"
           x="18.611652"
           y="148.00493"
           id="text11"><tspan
             sodipodi:role="line"
             id="tspan11"
             style="stroke-width:0.480358"
             x="18.611652"
             y="148.00493">P</tspan></text></g></g></g><style
     type="text/css"
     id="style1">
	.st0{display:none;}
	.st1{fill:none;}
</style></svg>
